<svg version="1.1" xmlns="http://www.w3.org/2000/svg" xmlns:xlink="http://www.w3.org/1999/xlink" width="16" height="16" viewBox="0,0,256,256"><g fill="#ffffff" fill-rule="nonzero" stroke="none" stroke-width="1" stroke-linecap="butt" stroke-linejoin="miter" stroke-miterlimit="10" stroke-dasharray="" stroke-dashoffset="0" font-family="none" font-weight="none" font-size="none" text-anchor="none" style="mix-blend-mode: normal"><g transform="scale(16,16)"><path d="M10,0.5c0,-0.27614 -0.22386,-0.5 -0.5,-0.5h-3c-0.27614,0 -0.5,0.22386 -0.5,0.5c0,0.27614 -0.22386,0.5 -0.5,0.5c-0.27614,0 -0.5,0.22386 -0.5,0.5v0.5c0,0.27614 0.22386,0.5 0.5,0.5h5c0.27614,0 0.5,-0.22386 0.5,-0.5v-0.5c0,-0.27614 -0.22386,-0.5 -0.5,-0.5c-0.27614,0 -0.5,-0.22386 -0.5,-0.5"></path><path d="M4.085,1h-0.585c-0.82843,0 -1.5,0.67157 -1.5,1.5v12c0,0.82843 0.67157,1.5 1.5,1.5h9c0.82843,0 1.5,-0.67157 1.5,-1.5v-12c0,-0.82843 -0.67157,-1.5 -1.5,-1.5h-0.585c0.056,0.15733 0.08433,0.324 0.085,0.5v0.5c0,0.82843 -0.67157,1.5 -1.5,1.5h-5c-0.82843,0 -1.5,-0.67157 -1.5,-1.5v-0.5c0.00067,-0.176 0.029,-0.34267 0.085,-0.5M10,7c0,-0.55228 0.44772,-1 1,-1c0.55228,0 1,0.44772 1,1v5c0,0.55228 -0.44772,1 -1,1c-0.55228,0 -1,-0.44772 -1,-1zM4,11c0,-0.55228 0.44772,-1 1,-1c0.55228,0 1,0.44772 1,1v1c0,0.55228 -0.44772,1 -1,1c-0.55228,0 -1,-0.44772 -1,-1zM8,8c0.55228,0 1,0.44772 1,1v3c0,0.55228 -0.44772,1 -1,1c-0.55228,0 -1,-0.44772 -1,-1v-3c0,-0.55228 0.44772,-1 1,-1"></path></g></g></svg>