<svg version="1.1" xmlns="http://www.w3.org/2000/svg" xmlns:xlink="http://www.w3.org/1999/xlink" width="16" height="16" viewBox="0,0,256,256"><g fill="#ffffff" fill-rule="nonzero" stroke="none" stroke-width="1" stroke-linecap="butt" stroke-linejoin="miter" stroke-miterlimit="10" stroke-dasharray="" stroke-dashoffset="0" font-family="none" font-weight="none" font-size="none" text-anchor="none" style="mix-blend-mode: normal"><g transform="scale(16,16)"><path d="M0,1.5c0,-0.82843 0.67157,-1.5 1.5,-1.5h1.5v5.5c0,0.82843 0.67157,1.5 1.5,1.5h7c0.82843,0 1.5,-0.67157 1.5,-1.5v-5.5h0.086c0.39769,0.00035 0.77897,0.15862 1.06,0.44l1.415,1.414c0.28102,0.2812 0.43892,0.66245 0.439,1.06v11.586c0,0.82843 -0.67157,1.5 -1.5,1.5h-0.5v-5.5c0,-0.82843 -0.67157,-1.5 -1.5,-1.5h-9c-0.82843,0 -1.5,0.67157 -1.5,1.5v5.5h-0.5c-0.82843,0 -1.5,-0.67157 -1.5,-1.5z"></path><path d="M3,16h10v-5.5c0,-0.27614 -0.22386,-0.5 -0.5,-0.5h-9c-0.27614,0 -0.5,0.22386 -0.5,0.5zM12,0h-8v5.5c0,0.27614 0.22386,0.5 0.5,0.5h7c0.27614,0 0.5,-0.22386 0.5,-0.5zM9,1h2v4h-2z"></path></g></g></svg>