<svg version="1.1" xmlns="http://www.w3.org/2000/svg" xmlns:xlink="http://www.w3.org/1999/xlink" width="16" height="16" viewBox="0,0,256,256"><g fill="#fffefe" fill-rule="evenodd" stroke="none" stroke-width="1" stroke-linecap="butt" stroke-linejoin="miter" stroke-miterlimit="10" stroke-dasharray="" stroke-dashoffset="0" font-family="none" font-weight="none" font-size="none" text-anchor="none" style="mix-blend-mode: normal"><g transform="translate(0.00715,0) scale(16,16)"><path d="M6,12.5c0,0.27614 0.22386,0.5 0.5,0.5h8c0.27614,0 0.5,-0.22386 0.5,-0.5v-9c0,-0.27614 -0.22386,-0.5 -0.5,-0.5h-8c-0.27614,0 -0.5,0.22386 -0.5,0.5v2c0,0.27614 -0.22386,0.5 -0.5,0.5c-0.27614,0 -0.5,-0.22386 -0.5,-0.5v-2c0,-0.82843 0.67157,-1.5 1.5,-1.5h8c0.82843,0 1.5,0.67157 1.5,1.5v9c0,0.82843 -0.67157,1.5 -1.5,1.5h-8c-0.82843,0 -1.5,-0.67157 -1.5,-1.5v-2c0,-0.27614 0.22386,-0.5 0.5,-0.5c0.27614,0 0.5,0.22386 0.5,0.5z"></path><path d="M0.146,8.354c-0.09404,-0.0938 -0.14689,-0.22117 -0.14689,-0.354c0,-0.13283 0.05285,-0.2602 0.14689,-0.354l3,-3c0.19551,-0.19551 0.51249,-0.19551 0.708,0c0.19551,0.19551 0.19551,0.51249 0,0.708l-2.147,2.146h8.793c0.27614,0 0.5,0.22386 0.5,0.5c0,0.27614 -0.22386,0.5 -0.5,0.5h-8.793l2.147,2.146c0.19551,0.19551 0.19551,0.51249 0,0.708c-0.19551,0.19551 -0.51249,0.19551 -0.708,0z"></path></g></g></svg>