<svg version="1.1" xmlns="http://www.w3.org/2000/svg" xmlns:xlink="http://www.w3.org/1999/xlink" width="16" height="16" viewBox="0,0,256,256"><g fill="#ffffff" fill-rule="nonzero" stroke="none" stroke-width="1" stroke-linecap="butt" stroke-linejoin="miter" stroke-miterlimit="10" stroke-dasharray="" stroke-dashoffset="0" font-family="none" font-weight="none" font-size="none" text-anchor="none" style="mix-blend-mode: normal"><g transform="scale(16,16)"><path d="M16,8c0,4.41828 -3.58172,8 -8,8c-4.41828,0 -8,-3.58172 -8,-8c0,-4.41828 3.58172,-8 8,-8c4.41828,0 8,3.58172 8,8M8,4c-0.25559,0.00015 -0.4992,0.10836 -0.67066,0.29791c-0.17145,0.18955 -0.25476,0.44277 -0.22934,0.69709l0.35,3.507c0.02438,0.28562 0.26334,0.50505 0.55,0.50505c0.28666,0 0.52562,-0.21943 0.55,-0.50505l0.35,-3.507c0.02542,-0.25432 -0.05789,-0.50754 -0.22934,-0.69709c-0.17145,-0.18955 -0.41507,-0.29777 -0.67066,-0.29791M8.002,10c-0.55228,0 -1,0.44772 -1,1c0,0.55228 0.44772,1 1,1c0.55228,0 1,-0.44772 1,-1c0,-0.55228 -0.44772,-1 -1,-1"></path></g></g></svg>