<svg version="1.1" xmlns="http://www.w3.org/2000/svg" xmlns:xlink="http://www.w3.org/1999/xlink" width="16" height="16" viewBox="0,0,256,256"><g fill="#ffffff" fill-rule="nonzero" stroke="none" stroke-width="1" stroke-linecap="butt" stroke-linejoin="miter" stroke-miterlimit="10" stroke-dasharray="" stroke-dashoffset="0" font-family="none" font-weight="none" font-size="none" text-anchor="none" style="mix-blend-mode: normal"><g transform="scale(16,16)"><path d="M3.5,0c0.27614,0 0.5,0.22386 0.5,0.5v0.5h8v-0.5c0,-0.27614 0.22386,-0.5 0.5,-0.5c0.27614,0 0.5,0.22386 0.5,0.5v0.5h1c1.10457,0 2,0.89543 2,2v11c0,1.10457 -0.89543,2 -2,2h-12c-1.10457,0 -2,-0.89543 -2,-2v-11c0,-1.10457 0.89543,-2 2,-2h1v-0.5c0,-0.27614 0.22386,-0.5 0.5,-0.5M13.454,3h-10.909c-0.3,0 -0.545,0.224 -0.545,0.5v1c0,0.276 0.244,0.5 0.545,0.5h10.91c0.3,0 0.545,-0.224 0.545,-0.5v-1c0,-0.276 -0.244,-0.5 -0.546,-0.5M8.5,7c-0.27614,0 -0.5,0.22386 -0.5,0.5v1c0,0.27614 0.22386,0.5 0.5,0.5h1c0.27614,0 0.5,-0.22386 0.5,-0.5v-1c0,-0.27614 -0.22386,-0.5 -0.5,-0.5zM11.5,7c-0.27614,0 -0.5,0.22386 -0.5,0.5v1c0,0.27614 0.22386,0.5 0.5,0.5h1c0.27614,0 0.5,-0.22386 0.5,-0.5v-1c0,-0.27614 -0.22386,-0.5 -0.5,-0.5zM3,10.5v1c0,0.27614 0.22386,0.5 0.5,0.5h1c0.27614,0 0.5,-0.22386 0.5,-0.5v-1c0,-0.27614 -0.22386,-0.5 -0.5,-0.5h-1c-0.27614,0 -0.5,0.22386 -0.5,0.5M6.5,10c-0.27614,0 -0.5,0.22386 -0.5,0.5v1c0,0.27614 0.22386,0.5 0.5,0.5h1c0.27614,0 0.5,-0.22386 0.5,-0.5v-1c0,-0.27614 -0.22386,-0.5 -0.5,-0.5z"></path></g></g></svg>