<svg version="1.1" xmlns="http://www.w3.org/2000/svg" xmlns:xlink="http://www.w3.org/1999/xlink" width="16" height="16" viewBox="0,0,256,256"><g fill="#ffffff" fill-rule="nonzero" stroke="none" stroke-width="1" stroke-linecap="butt" stroke-linejoin="miter" stroke-miterlimit="10" stroke-dasharray="" stroke-dashoffset="0" font-family="none" font-weight="none" font-size="none" text-anchor="none" style="mix-blend-mode: normal"><g transform="translate(-16,-16) scale(16,16)"><path d="M12.5,16c1.933,0 3.5,-1.567 3.5,-3.5c0,-1.933 -1.567,-3.5 -3.5,-3.5c-1.933,0 -3.5,1.567 -3.5,3.5c0,1.933 1.567,3.5 3.5,3.5M12.854,10.146l1.5,1.5c0.19551,0.19551 0.19551,0.51249 0,0.708c-0.19551,0.19551 -0.51249,0.19551 -0.708,0l-0.646,-0.647v2.793c0,0.27614 -0.22386,0.5 -0.5,0.5c-0.27614,0 -0.5,-0.22386 -0.5,-0.5v-2.793l-0.646,0.647c-0.19551,0.19551 -0.51249,0.19551 -0.708,0c-0.19551,-0.19551 -0.19551,-0.51249 0,-0.708l1.5,-1.5c0.0938,-0.09404 0.22117,-0.14689 0.354,-0.14689c0.13283,0 0.2602,0.05285 0.354,0.14689M11,5c0,1.65685 -1.34315,3 -3,3c-1.65685,0 -3,-1.34315 -3,-3c0,-1.65685 1.34315,-3 3,-3c1.65685,0 3,1.34315 3,3"></path><path d="M2,13c0,1 1,1 1,1h5.256c-0.16987,-0.48184 -0.25644,-0.98909 -0.256,-1.5c-0.00002,-1.30102 0.56305,-2.53837 1.544,-3.393c-0.46667,-0.07 -0.98133,-0.10567 -1.544,-0.107c-5,0 -6,3 -6,4"></path></g></g></svg>