<svg version="1.1" xmlns="http://www.w3.org/2000/svg" xmlns:xlink="http://www.w3.org/1999/xlink" width="16" height="16" viewBox="0,0,256,256"><g fill="#ffffff" fill-rule="nonzero" stroke="none" stroke-width="1" stroke-linecap="butt" stroke-linejoin="miter" stroke-miterlimit="10" stroke-dasharray="" stroke-dashoffset="0" font-family="none" font-weight="none" font-size="none" text-anchor="none" style="mix-blend-mode: normal"><g transform="translate(0,-0.00058) scale(16,16)"><path d="M1.5,15c-0.27614,0 -0.5,0.22386 -0.5,0.5c0,0.27614 0.22386,0.5 0.5,0.5h13c0.27614,0 0.5,-0.22386 0.5,-0.5c0,-0.27614 -0.22386,-0.5 -0.5,-0.5h-1.5v-12.5c0,-0.82843 -0.67157,-1.5 -1.5,-1.5h-0.5v-0.5c-0.00002,-0.14481 -0.06282,-0.28249 -0.17216,-0.37744c-0.10933,-0.09495 -0.25446,-0.13783 -0.39784,-0.11756l-7,1c-0.24662,0.03487 -0.42996,0.24593 -0.43,0.495v13.5zM11,2h0.5c0.27614,0 0.5,0.22386 0.5,0.5v12.5h-1zM8.5,10c-0.276,0 -0.5,-0.448 -0.5,-1c0,-0.552 0.224,-1 0.5,-1c0.276,0 0.5,0.448 0.5,1c0,0.552 -0.224,1 -0.5,1"></path></g></g></svg>