<svg version="1.1" xmlns="http://www.w3.org/2000/svg" xmlns:xlink="http://www.w3.org/1999/xlink" width="16" height="16" viewBox="0,0,256,256"><g fill="#ffffff" fill-rule="nonzero" stroke="none" stroke-width="1" stroke-linecap="butt" stroke-linejoin="miter" stroke-miterlimit="10" stroke-dasharray="" stroke-dashoffset="0" font-family="none" font-weight="none" font-size="none" text-anchor="none" style="mix-blend-mode: normal"><g transform="scale(16,16)"><path d="M7,14c0,0 -1,0 -1,-1c0,-1 1,-4 5,-4c4,0 5,3 5,4c0,1 -1,1 -1,1zM11,8c1.65685,0 3,-1.34315 3,-3c0,-1.65685 -1.34315,-3 -3,-3c-1.65685,0 -3,1.34315 -3,3c0,1.65685 1.34315,3 3,3M5.216,14c-0.14818,-0.31221 -0.2221,-0.65447 -0.216,-1c0,-1.355 0.68,-2.75 1.936,-3.72c-0.62682,-0.19356 -1.28002,-0.28803 -1.936,-0.28c-4,0 -5,3 -5,4c0,1 1,1 1,1zM4.5,8c1.38071,0 2.5,-1.11929 2.5,-2.5c0,-1.38071 -1.11929,-2.5 -2.5,-2.5c-1.38071,0 -2.5,1.11929 -2.5,2.5c0,1.38071 1.11929,2.5 2.5,2.5"></path></g></g></svg>