<svg version="1.1" xmlns="http://www.w3.org/2000/svg" xmlns:xlink="http://www.w3.org/1999/xlink" width="16" height="16" viewBox="0,0,256,256"><g fill="#ffffff" fill-rule="nonzero" stroke="none" stroke-width="1" stroke-linecap="butt" stroke-linejoin="miter" stroke-miterlimit="10" stroke-dasharray="" stroke-dashoffset="0" font-family="none" font-weight="none" font-size="none" text-anchor="none" style="mix-blend-mode: normal"><g transform="translate(2.33553,-2.33953) scale(16,16)"><path d="M13.498,0.795l0.149,-0.149c0.47165,-0.47138 1.23612,-0.47115 1.7075,0.0005c0.47138,0.47165 0.47115,1.23612 -0.0005,1.7075l-0.149,0.148c0.52918,0.59349 0.50329,1.49679 -0.059,2.059l-10.292,10.293c-0.06434,0.064 -0.14488,0.10929 -0.233,0.131l-4,1c-0.17027,0.0424 -0.3503,-0.00756 -0.47437,-0.13163c-0.12407,-0.12407 -0.17403,-0.3041 -0.13163,-0.47437l1,-4c0.02188,-0.08776 0.06715,-0.16794 0.131,-0.232l9.642,-9.642c-0.19909,-0.14012 -0.47017,-0.11648 -0.642,0.056l-3.292,3.293c-0.19551,0.19551 -0.51249,0.19551 -0.708,0c-0.19551,-0.19551 -0.19551,-0.51249 0,-0.708l3.294,-3.292c0.56261,-0.56263 1.46663,-0.58808 2.06,-0.058c0.56884,-0.50838 1.42865,-0.50881 1.998,-0.001"></path></g></g></svg>