<svg version="1.1" xmlns="http://www.w3.org/2000/svg" xmlns:xlink="http://www.w3.org/1999/xlink" width="16" height="16" viewBox="0,0,256,256"><g fill="#ffffff" fill-rule="nonzero" stroke="none" stroke-width="1" stroke-linecap="butt" stroke-linejoin="miter" stroke-miterlimit="10" stroke-dasharray="" stroke-dashoffset="0" font-family="none" font-weight="none" font-size="none" text-anchor="none" style="mix-blend-mode: normal"><g transform="translate(0.03583,-0.01091) scale(16,16)"><path d="M8,11c1.65685,0 3,-1.34315 3,-3c0,-1.65685 -1.34315,-3 -3,-3c-1.65685,0 -3,1.34315 -3,3c0,1.65685 1.34315,3 3,3"></path><path d="M13.997,5.17c0.06627,-1.94712 -1.00449,-3.75541 -2.74365,-4.63347c-1.73916,-0.87806 -3.82996,-0.66596 -5.35735,0.54347c-2.10424,-0.38425 -4.21984,0.61261 -5.26313,2.47996c-1.0433,1.86735 -0.78317,4.19153 0.64713,5.78204c-0.78215,2.22325 0.09443,4.69083 2.10388,5.92238c2.00945,1.23156 4.60607,0.89266 6.23212,-0.81338c1.25087,0.79855 2.86937,0.72142 4.03864,-0.19246c1.16927,-0.91388 1.63509,-2.46581 1.16236,-3.87254c0.87647,-0.66869 1.31574,-1.76409 1.14413,-2.85308c-0.17162,-1.08898 -0.92649,-1.9962 -1.96613,-2.36292zM12.997,5.136c-0.01464,0.43662 0.25583,0.83221 0.668,0.977c0.69309,0.24476 1.1962,0.84981 1.3104,1.57592c0.1142,0.72611 -0.1789,1.45639 -0.7634,1.90208c-0.34014,0.2598 -0.47723,0.70725 -0.341,1.113c0.33859,1.00501 0.00624,2.11428 -0.82918,2.76755c-0.83542,0.65327 -1.9921,0.70836 -2.88582,0.13745c-0.4029,-0.2576 -0.93179,-0.1939 -1.262,0.152c-1.30052,1.36627 -3.37878,1.63831 -4.98714,0.6528c-1.60836,-0.98551 -2.30965,-2.9607 -1.68286,-4.7398c0.12108,-0.34484 0.0444,-0.72826 -0.2,-1c-1.14464,-1.27239 -1.35294,-3.13204 -0.51818,-4.62615c0.83476,-1.49411 2.52759,-2.29159 4.21118,-1.98385c0.28302,0.0515 0.57451,-0.02137 0.8,-0.2c1.22207,-0.96716 2.89461,-1.13647 4.28571,-0.43384c1.3911,0.70264 2.24744,2.14927 2.19429,3.70684z"></path></g></g></svg>