<svg version="1.1" xmlns="http://www.w3.org/2000/svg" xmlns:xlink="http://www.w3.org/1999/xlink" width="16" height="16" viewBox="0,0,256,256"><g fill="#ffffff" fill-rule="nonzero" stroke="none" stroke-width="1" stroke-linecap="butt" stroke-linejoin="miter" stroke-miterlimit="10" stroke-dasharray="" stroke-dashoffset="0" font-family="none" font-weight="none" font-size="none" text-anchor="none" style="mix-blend-mode: normal"><g transform="scale(16,16)"><path d="M14.5,3c0.27614,0 0.5,0.22386 0.5,0.5v9c0,0.27614 -0.22386,0.5 -0.5,0.5h-13c-0.27614,0 -0.5,-0.22386 -0.5,-0.5v-9c0,-0.27614 0.22386,-0.5 0.5,-0.5zM1.5,2c-0.82843,0 -1.5,0.67157 -1.5,1.5v9c0,0.82843 0.67157,1.5 1.5,1.5h13c0.82843,0 1.5,-0.67157 1.5,-1.5v-9c0,-0.82843 -0.67157,-1.5 -1.5,-1.5z"></path><path d="M5,8c0,-0.27614 0.22386,-0.5 0.5,-0.5h7c0.27614,0 0.5,0.22386 0.5,0.5c0,0.27614 -0.22386,0.5 -0.5,0.5h-7c-0.27614,0 -0.5,-0.22386 -0.5,-0.5M5,5.5c0,-0.27614 0.22386,-0.5 0.5,-0.5h7c0.27614,0 0.5,0.22386 0.5,0.5c0,0.27614 -0.22386,0.5 -0.5,0.5h-7c-0.27614,0 -0.5,-0.22386 -0.5,-0.5M5,10.5c0,-0.27614 0.22386,-0.5 0.5,-0.5h7c0.27614,0 0.5,0.22386 0.5,0.5c0,0.27614 -0.22386,0.5 -0.5,0.5h-7c-0.27614,0 -0.5,-0.22386 -0.5,-0.5M4,5.5c0,0.27614 -0.22386,0.5 -0.5,0.5c-0.27614,0 -0.5,-0.22386 -0.5,-0.5c0,-0.27614 0.22386,-0.5 0.5,-0.5c0.27614,0 0.5,0.22386 0.5,0.5M4,8c0,0.27614 -0.22386,0.5 -0.5,0.5c-0.27614,0 -0.5,-0.22386 -0.5,-0.5c0,-0.27614 0.22386,-0.5 0.5,-0.5c0.27614,0 0.5,0.22386 0.5,0.5M4,10.5c0,0.27614 -0.22386,0.5 -0.5,0.5c-0.27614,0 -0.5,-0.22386 -0.5,-0.5c0,-0.27614 0.22386,-0.5 0.5,-0.5c0.27614,0 0.5,0.22386 0.5,0.5"></path></g></g></svg>